<svg xmlns="http://www.w3.org/2000/svg" width="1024" height="1024" viewBox="0 0 1024 1024">
  <defs>
    <linearGradient id="bg" x1="128" y1="0" x2="896" y2="1024" gradientUnits="userSpaceOnUse">
      <stop offset="0" stop-color="#7DE3FF"/>
      <stop offset="0.52" stop-color="#0A84FF"/>
      <stop offset="1" stop-color="#065DD8"/>
    </linearGradient>
    <filter id="softShadow" x="-20%" y="-20%" width="140%" height="140%">
      <feDropShadow dx="0" dy="28" stdDeviation="28" flood-color="#002761" flood-opacity="0.32"/>
    </filter>
  </defs>
  <rect width="1024" height="1024" fill="url(#bg)"/>
  <g fill="none" stroke-linecap="round" stroke-linejoin="round">
    <path d="M230 832 A374 374 0 0 1 766 228" stroke="#fff" stroke-width="36" opacity="0.95"/>
    <path d="M766 228 L719 227 L746 267 Z" fill="#fff" opacity="0.95"/>
    <path d="M874 321 A374 374 0 0 1 276 792" stroke="#DAFBFF" stroke-width="36" opacity="0.93"/>
    <path d="M276 792 L325 795 L295 754 Z" fill="#DAFBFF" opacity="0.93"/>
  </g>
  <g filter="url(#softShadow)">
    <circle cx="512" cy="524" r="282" fill="#F4FCFF" fill-opacity="0.91" stroke="#fff" stroke-width="8"/>
    <ellipse cx="424" cy="406" rx="147" ry="102" fill="#fff" fill-opacity="0.28"/>
    <g fill="none" stroke="#0E6CBE" stroke-opacity="0.64" stroke-width="10" stroke-linecap="round">
      <ellipse cx="512" cy="524" rx="254" ry="107"/>
      <ellipse cx="512" cy="524" rx="254" ry="186"/>
      <path d="M278 524 H746"/>
      <ellipse cx="512" cy="524" rx="107" ry="262"/>
      <ellipse cx="512" cy="524" rx="192" ry="262"/>
      <path d="M512 278 V770"/>
    </g>
    <g fill="none" stroke-linecap="round" stroke-linejoin="round">
      <path d="M380 452 H470 L486 474" stroke="#005DB2" stroke-width="18"/>
      <path d="M546 448 H654" stroke="#1C99E0" stroke-width="16"/>
      <path d="M366 602 L438 566 L520 600 L604 562" stroke="#005DB2" stroke-width="17"/>
      <path d="M624 606 H666" stroke="#1C99E0" stroke-width="16"/>
    </g>
  </g>
</svg>
